<?xml version="1.0" standalone="no"?>
<!DOCTYPE svg PUBLIC "-//W3C//DTD SVG 20010904//EN"
 "http://www.w3.org/TR/2001/REC-SVG-20010904/DTD/svg10.dtd">
<svg version="1.0" xmlns="http://www.w3.org/2000/svg"
 width="500.000000pt" height="500.000000pt" viewBox="0 0 500.000000 500.000000"
 preserveAspectRatio="xMidYMid meet">
<metadata>
Created by potrace 1.11, written by Peter Selinger 2001-2013
</metadata>
<g transform="translate(0.000000,500.000000) scale(0.100000,-0.100000)"
fill="#000000" stroke="none">
<path d="M2836 4948 c27 -86 26 -185 -5 -272 -59 -169 -203 -327 -536 -591
-154 -121 -335 -277 -391 -336 -187 -198 -235 -357 -169 -555 64 -193 245
-419 510 -639 33 -28 62 -53 65 -56 9 -10 138 -99 143 -99 3 0 -11 26 -32 58
-62 95 -137 232 -206 376 -36 75 -65 138 -65 141 0 2 -12 30 -27 62 -39 83
-40 193 0 277 52 113 103 174 351 426 303 308 403 443 466 630 29 86 35 248
14 340 -16 68 -102 260 -117 260 -5 0 -5 -10 -1 -22z"/>
<path d="M3505 4100 c-619 -99 -993 -386 -1010 -773 -3 -86 13 -155 60 -247
27 -53 117 -191 142 -218 7 -7 31 -50 53 -96 33 -66 41 -93 41 -137 0 -102
-46 -201 -139 -297 -22 -23 -37 -42 -32 -42 5 0 41 12 80 26 197 71 344 210
384 365 29 112 3 226 -87 385 -84 150 -94 169 -111 220 -32 96 -22 165 35 249
77 115 307 306 590 491 71 47 129 87 129 89 0 7 -8 6 -135 -15z"/>
<path d="M1767 2484 c-1 -1 -58 -5 -127 -8 -69 -4 -137 -8 -150 -10 -14 -2
-45 -7 -70 -10 -25 -3 -65 -9 -90 -12 -82 -11 -227 -52 -292 -82 -73 -34 -112
-72 -126 -123 -23 -86 51 -151 230 -203 80 -23 110 -29 196 -41 20 -3 51 -7
67 -10 37 -5 146 -14 245 -20 97 -6 463 -6 560 0 211 12 269 16 291 20 13 2
65 6 114 10 50 4 97 8 105 10 8 2 38 6 65 9 130 18 190 26 220 32 11 2 43 7
70 10 28 4 66 12 85 18 30 10 226 147 310 216 l25 20 -50 -6 c-27 -3 -52 -7
-55 -9 -3 -2 -29 -6 -59 -10 -30 -4 -61 -8 -70 -10 -9 -1 -45 -6 -81 -9 -36
-4 -81 -9 -100 -11 -19 -2 -69 -7 -110 -10 -41 -4 -95 -8 -120 -10 -240 -21
-991 -28 -1176 -12 -105 9 -194 30 -205 48 -17 27 25 67 111 106 48 22 214 76
267 88 54 11 45 20 -19 20 -33 0 -60 -1 -61 -1z"/>
<path d="M3806 2474 c-64 -12 -171 -55 -217 -88 -19 -13 -15 -14 44 -11 113 5
207 -27 276 -97 56 -55 75 -110 69 -200 -12 -180 -185 -417 -450 -617 -32 -24
-58 -45 -58 -47 0 -5 51 6 147 31 361 95 581 276 639 526 14 57 16 181 4 231
-50 212 -223 315 -454 272z"/>
<path d="M1556 1909 c-194 -63 -303 -172 -256 -258 33 -63 231 -146 415 -176
198 -32 292 -40 515 -40 254 0 326 6 605 50 134 21 475 119 475 136 0 4 -64
46 -142 94 l-141 87 -81 -21 c-45 -11 -97 -23 -116 -26 -19 -3 -53 -10 -75
-15 -22 -5 -67 -12 -100 -15 -33 -4 -71 -8 -85 -11 -51 -8 -239 -18 -355 -18
-328 0 -554 47 -592 123 -13 27 -6 49 29 87 l19 22 -32 -2 c-18 0 -55 -8 -83
-17z"/>
<path d="M1723 1398 c-137 -23 -253 -125 -253 -223 0 -76 102 -145 271 -184
159 -37 245 -46 469 -46 243 0 360 10 545 46 55 11 113 23 129 25 77 14 293
97 344 132 8 6 -11 23 -65 57 -43 27 -115 73 -160 102 -80 52 -82 52 -115 38
-74 -30 -248 -68 -423 -90 -119 -16 -373 -22 -450 -11 -157 23 -218 50 -223
100 -2 16 1 33 7 39 27 27 10 30 -76 15z"/>
<path d="M924 1125 c-174 -30 -307 -101 -360 -191 -79 -134 38 -283 302 -385
129 -50 359 -107 498 -124 22 -3 55 -8 71 -11 38 -7 86 -12 250 -29 241 -25
950 -25 1107 0 12 2 58 6 101 10 43 4 88 8 100 10 12 2 42 6 67 9 47 6 247 41
290 50 14 3 50 11 80 17 189 38 417 130 526 211 131 98 170 232 91 317 -25 26
-93 74 -120 84 -16 6 -18 2 -12 -36 25 -164 -156 -291 -530 -372 -60 -13 -130
-26 -155 -30 -25 -3 -52 -8 -60 -10 -8 -2 -37 -7 -65 -10 -27 -3 -75 -8 -105
-11 -30 -3 -65 -7 -77 -9 -166 -26 -918 -26 -1108 0 -30 4 -110 13 -175 20
-115 11 -339 58 -437 90 -125 42 -203 101 -203 153 0 85 185 161 365 150 85
-5 88 -10 -47 66 -66 37 -68 37 -195 40 -71 2 -160 -2 -199 -9z"/>
<path d="M4415 633 c-90 -81 -270 -184 -445 -256 -83 -34 -324 -112 -378 -122
-48 -9 -73 -14 -90 -19 -9 -3 -30 -8 -47 -11 -16 -2 -41 -7 -55 -10 -14 -3
-54 -10 -90 -15 -36 -6 -76 -13 -90 -15 -14 -3 -50 -7 -80 -10 -30 -3 -64 -8
-75 -10 -99 -20 -771 -28 -965 -12 -155 13 -302 29 -395 43 -55 8 -90 14 -125
19 -40 6 -51 7 -223 40 -70 13 -133 27 -140 31 -8 5 -9 4 -2 -4 33 -35 503
-170 725 -207 19 -3 42 -8 50 -10 8 -2 38 -7 65 -10 28 -3 61 -8 75 -10 14 -3
48 -8 75 -11 28 -3 61 -7 75 -9 191 -25 873 -25 954 0 6 2 38 6 71 9 103 10
250 37 389 72 370 93 635 244 725 414 26 48 53 151 40 150 -2 -1 -22 -17 -44
-37z"/>
</g>
</svg>
